<svg xmlns="http://www.w3.org/2000/svg" version="1.0" viewBox="0 0 1260 294.563">
	<path d="M693 9.985c-4.1 5.4-7.5 9.8-7.7 9.6-.2-.1.8-3.5 2.1-7.4 1.4-4 2.1-7.2 1.7-7.2-.5 0-4.2 2.2-8.2 4.8-15.2 9.9-37.9 30.1-37.9 33.6 0 1.7-.6 2.2-2.2 2.2-1.5-.1-6.1 4.1-16.1 14.9-16.5 17.8-36.7 42.2-36.7 44.4 0 .9.9 5.4 2 10s1.9 8.5 1.7 8.7c-.2.2-1.6-3.2-3.2-7.6-1.6-4.4-3.2-8-3.5-8-1.3 0-17.4 25.5-21.9 34.6-9.1 18.6-13.1 33.5-13.1 49.4 0 11 2.2 20 6.5 26.2l2.6 3.8-2.6 5c-1.4 2.7-2.5 5.2-2.5 5.5 0 .3 2.5.5 5.5.5h5.5l2.6-5.3 2.6-5.3 7.5-1.2c10.4-1.6 18.1-6 27.6-15.5 4.2-4.2 7.7-8.1 7.7-8.5 0-.4-3.2-1.7-7.1-2.7-3.9-1.1-7.2-2.2-7.4-2.5-.2-.3 4.8-1.9 11.2-3.5 9.3-2.4 11.8-3.4 13.3-5.5.9-1.4 10.4-19.3 21-39.8 14.4-27.8 19-37.6 18-38.2-.7-.4-4.5-1.1-8.4-1.5-15.1-1.5-15.6-2.3-1.5-2.4l13.6-.1 14.2-28c7.8-15.4 14.1-28 13.9-28-.2 0-5.2 1.3-11.2 3-6.1 1.6-11.1 2.8-11.3 2.6-.2-.1 5.4-2.7 12.3-5.6 8.1-3.5 13.1-6.2 14.1-7.7 2.9-4.5 9.2-20.1 10.4-26.1 1.1-5.3 1.1-6.3-.4-8.6-1.2-1.8-2.6-2.6-4.5-2.6-2.3 0-3.9 1.7-10.2 10zm-25.2 33.8c-.7 1-5.4 7.2-10.4 13.7-13.3 17.5-28.9 39.3-38.1 53-12.6 18.9-38.9 63.8-44.4 76-1.6 3.4-1.9 3.6-1.9 1.5 0-20.4 30.4-70.6 73.4-121 15.6-18.2 26.1-29.6 21.4-23.2zM0 131.985v4h556.5l2.3-4 2.3-4H0v4zM658.7 131.485c-.9 2-1.7 3.8-1.7 4 0 .3 135.7.5 301.5.5H1260v-8H660.4l-1.7 3.5zM477.8 173.185l-.3 23.3-22-22.7c-12.1-12.4-22.3-22.6-22.8-22.7-.4-.1-.6 17.1-.5 38.1l.3 38.3 5.8.3 5.7.3v-23.1c0-12.6.3-23 .8-23 .4 0 10.7 10.2 22.9 22.7l22.2 22.8v-38.8l.1-38.7h-12l-.2 23.2zM519.8 178.385c-.3 27.1-.4 28.6-2.4 31.3-2.9 3.9-7 5.7-13 5.7h-5.2l-1.2 5.4c-.6 2.9-.9 5.7-.5 6 1.3 1.3 15 .5 18.6-1 4.9-2.1 10.6-7.3 13.2-12.2 2.1-3.9 2.2-5.5 2.5-33.9l.3-29.7h-12l-.3 28.4zM651 188.985v39h11.9l.3-13.3.3-13.2 10.1-.5c9-.4 10.6-.8 15-3.5 7.1-4.4 10.7-11.9 10.7-21.9-.1-9.1-3-15.6-9.1-20.3-5.4-4.1-11.5-5.3-26.7-5.3H651v39zm29.9-26.2c5.5 2.7 7.6 6.4 7.6 13.1 0 10.4-4.2 14.1-17 14.9l-8.5.5V160.985h7.3c4.9 0 8.3.6 10.6 1.8zM711 188.985v39h46v-11h-34v-24h28v-11h-28v-21h34v-11h-46v39zM816 173.685v23.8l-23-23.5-22.9-23.5v38.7l-.1 38.8h12v-46.7l23 23.1 23 23.1v-77.5h-12v23.7zM0 245.985v4h1260v-8H0v4zM538.4 263.285c-5.1 6.3-5.1 6.4-4.4 11.3.4 2.6.4 7.8-.1 11.4-.4 3.5-.6 6.6-.5 6.8.2.1 1.7-3.2 3.5-7.4 2.2-5.3 3-8.5 2.6-10.4-1.2-5.5 5.1-8 8.3-3.3 1.3 2.1 1.2 2.5-1.7 5.2-2.5 2.4-9.1 15.1-9.1 17.6 0 .4 1.7-1.5 3.8-4.2 4.2-5.3 10.7-11.3 12.2-11.3.6 0 1-1.9 1-4.3 0-2.3.7-6.9 1.5-10.2.8-3.3 1.4-6.3 1.5-6.8 0-.4-3-.7-6.7-.7h-6.8l-5.1 6.3z"/>
</svg>
